<?xml version="1.0" encoding="iso-8859-1"?>
<!-- Generator: Adobe Illustrator 16.0.0, SVG Export Plug-In . SVG Version: 6.00 Build 0)  -->
<!DOCTYPE svg PUBLIC "-//W3C//DTD SVG 1.1//EN" "http://www.w3.org/Graphics/SVG/1.1/DTD/svg11.dtd">
<svg version="1.1" id="Capa_1" xmlns="http://www.w3.org/2000/svg" xmlns:xlink="http://www.w3.org/1999/xlink" x="0px" y="0px"
	 width="485.212px" height="485.212px" viewBox="0 0 485.212 485.212" style="enable-background:new 0 0 485.212 485.212;"
	 xml:space="preserve">
<g>
	<path d="M32.22,136.526V102.41c0.028-6.07,7.019-16.911,7.315-17.177C93.051,30.8,166.256,0,242.663,0
		c76.584,0,150.031,30.947,203.576,85.708c0.056,0,6.753,10.66,6.753,16.701v34.116c0,12.499-9.185,27.368-20.376,32.931
		l-4.798,2.371c-11.136,5.626-29.202,5.094-40.039-1.066l-40.1-22.92c-10.897-6.221-19.961-21.56-19.961-34.058V91.005
		c-52.598-30.266-117.601-30.233-170.227-0.028v22.806c0,12.499-9.063,27.778-19.903,34.058l-40.158,22.861
		c-10.807,6.219-28.845,6.751-40.067,1.127l-4.77-2.369C41.402,163.833,32.22,149.024,32.22,136.526z M454.887,333.584v121.302
		c0,16.671-13.628,30.326-30.327,30.326H60.649c-16.645,0-30.324-13.655-30.324-30.326V333.584c0-16.671,9.654-39.979,21.44-51.768
		l78.421-78.419c11.787-11.789,35.122-21.443,51.767-21.443v-30.327c14.333-19.069,36.781-30.324,60.651-30.324
		c23.872,0,46.377,11.255,60.648,30.324v30.327c16.704,0,39.983,9.654,51.768,21.443l78.421,78.419
		C445.231,293.606,454.887,316.914,454.887,333.584z M333.584,333.584c0-50.26-40.691-90.979-90.979-90.979
		c-50.228,0-90.978,40.719-90.978,90.979s40.75,90.975,90.978,90.975C292.893,424.559,333.584,383.844,333.584,333.584z
		 M242.605,272.93c-33.435,0-60.651,27.219-60.651,60.654c0,33.435,27.216,60.652,60.651,60.652
		c33.468,0,60.648-27.218,60.648-60.652C303.253,300.149,276.073,272.93,242.605,272.93z"/>
</g>
<g>
</g>
<g>
</g>
<g>
</g>
<g>
</g>
<g>
</g>
<g>
</g>
<g>
</g>
<g>
</g>
<g>
</g>
<g>
</g>
<g>
</g>
<g>
</g>
<g>
</g>
<g>
</g>
<g>
</g>
</svg>
